<svg class="css-ze2te4 css-qd6ojx" viewBox="0 0 58.333333333333336 62.33832268725967"><g transform="translate(-11.471065235504657, -9.498203847483078) scale(0.8135507039120349)" class="css-17ivn46" fill="#000000"><g xmlns="http://www.w3.org/2000/svg"><g><g><path d="M78.3,82.7H21.7c-4.2,0-7.6-3.4-7.6-7.6V37.2c0-4.2,3.4-7.6,7.6-7.6h56.5c4.2,0,7.6,3.4,7.6,7.6v37.9     C85.9,79.3,82.5,82.7,78.3,82.7z M21.7,35c-1.2,0-2.2,1-2.2,2.2v37.9c0,1.2,1,2.2,2.2,2.2h56.5c1.2,0,2.2-1,2.2-2.2V37.2     c0-1.2-1-2.2-2.2-2.2H21.7z"></path></g><g><g><path d="M27,88.3c-0.7,0-1.4-0.3-1.9-0.8c-1.1-1.1-1.1-2.8,0-3.8l5.6-5.6c1.1-1.1,2.8-1.1,3.8,0c1.1,1.1,1.1,2.8,0,3.8l-5.6,5.6      C28.4,88,27.7,88.3,27,88.3z"></path></g><g><path d="M73,88.3c-0.7,0-1.4-0.3-1.9-0.8l-5.6-5.6c-1.1-1.1-1.1-2.8,0-3.8c1.1-1.1,2.8-1.1,3.8,0l5.6,5.6c1.1,1.1,1.1,2.8,0,3.8      C74.4,88,73.7,88.3,73,88.3z"></path></g></g><g><g><path d="M50.7,32.6c-0.7,0-1.4-0.3-1.9-0.8c-1.1-1.1-1.1-2.8,0-3.8l15.5-15.5c1.1-1.1,2.8-1.1,3.8,0s1.1,2.8,0,3.8L52.6,31.8      C52.1,32.4,51.4,32.6,50.7,32.6z"></path></g><g><path d="M48,32.6c-0.7,0-1.4-0.3-1.9-0.8l-5.6-5.6c-1.1-1.1-1.1-2.8,0-3.8s2.8-1.1,3.8,0l5.6,5.6c1.1,1.1,1.1,2.8,0,3.8      C49.3,32.4,48.6,32.6,48,32.6z"></path></g></g><g><path d="M58.5,74.2h-17c-1.5,0-2.7-1.2-2.7-2.7s1.2-2.7,2.7-2.7h17c1.5,0,2.7,1.2,2.7,2.7S60,74.2,58.5,74.2z"></path></g><g><path d="M27,74.2c-0.7,0-1.4-0.3-1.9-0.8c-0.5-0.5-0.8-1.2-0.8-1.9c0-0.7,0.3-1.4,0.8-1.9c1-1,2.8-1,3.8,0     c0.5,0.5,0.8,1.2,0.8,1.9c0,0.7-0.3,1.4-0.8,1.9C28.4,73.9,27.7,74.2,27,74.2z"></path></g></g></g></g></svg>