<svg width="429" height="106.72682926829269" viewBox="0 0 410 102" class="looka-1j8o68f" xmlns="http://www.w3.org/2000/svg">
  <defs id="SvgjsDefs1685"></defs>
  <g id="SvgjsG1686" featurekey="rootContainer" transform="matrix(1,0,0,1,0,0)" fill="#000000">
    <rect xmlns="http://www.w3.org/2000/svg" width="410" height="102" rx="10" ry="10"></rect>
  </g>
  <g id="SvgjsG1687" featurekey="symbolFeature-0"
    transform="matrix(0.8135507106781006,0,0,0.8135507106781006,8.528934764495343,10.501796152516922)"
    fill="#ffffff">
    <g xmlns="http://www.w3.org/2000/svg">
      <g>
        <g>
          <path
            d="M78.3,82.7H21.7c-4.2,0-7.6-3.4-7.6-7.6V37.2c0-4.2,3.4-7.6,7.6-7.6h56.5c4.2,0,7.6,3.4,7.6,7.6v37.9     C85.9,79.3,82.5,82.7,78.3,82.7z M21.7,35c-1.2,0-2.2,1-2.2,2.2v37.9c0,1.2,1,2.2,2.2,2.2h56.5c1.2,0,2.2-1,2.2-2.2V37.2     c0-1.2-1-2.2-2.2-2.2H21.7z"></path>
        </g>
        <g>
          <g>
            <path
              d="M27,88.3c-0.7,0-1.4-0.3-1.9-0.8c-1.1-1.1-1.1-2.8,0-3.8l5.6-5.6c1.1-1.1,2.8-1.1,3.8,0c1.1,1.1,1.1,2.8,0,3.8l-5.6,5.6      C28.4,88,27.7,88.3,27,88.3z"></path>
          </g>
          <g>
            <path
              d="M73,88.3c-0.7,0-1.4-0.3-1.9-0.8l-5.6-5.6c-1.1-1.1-1.1-2.8,0-3.8c1.1-1.1,2.8-1.1,3.8,0l5.6,5.6c1.1,1.1,1.1,2.8,0,3.8      C74.4,88,73.7,88.3,73,88.3z"></path>
          </g>
        </g>
        <g>
          <g>
            <path
              d="M50.7,32.6c-0.7,0-1.4-0.3-1.9-0.8c-1.1-1.1-1.1-2.8,0-3.8l15.5-15.5c1.1-1.1,2.8-1.1,3.8,0s1.1,2.8,0,3.8L52.6,31.8      C52.1,32.4,51.4,32.6,50.7,32.6z"></path>
          </g>
          <g>
            <path
              d="M48,32.6c-0.7,0-1.4-0.3-1.9-0.8l-5.6-5.6c-1.1-1.1-1.1-2.8,0-3.8s2.8-1.1,3.8,0l5.6,5.6c1.1,1.1,1.1,2.8,0,3.8      C49.3,32.4,48.6,32.6,48,32.6z"></path>
          </g>
        </g>
        <g>
          <path
            d="M58.5,74.2h-17c-1.5,0-2.7-1.2-2.7-2.7s1.2-2.7,2.7-2.7h17c1.5,0,2.7,1.2,2.7,2.7S60,74.2,58.5,74.2z"></path>
        </g>
        <g>
          <path
            d="M27,74.2c-0.7,0-1.4-0.3-1.9-0.8c-0.5-0.5-0.8-1.2-0.8-1.9c0-0.7,0.3-1.4,0.8-1.9c1-1,2.8-1,3.8,0     c0.5,0.5,0.8,1.2,0.8,1.9c0,0.7-0.3,1.4-0.8,1.9C28.4,73.9,27.7,74.2,27,74.2z"></path>
        </g>
      </g>
    </g>
  </g>
  <g id="SvgjsG1688" featurekey="q4o0QG-0"
    transform="matrix(3.5508482456207275,0,0,3.5508482456207275,96.15356028825889,6.890681435019086)"
    fill="#ffffff">
    <path
      d="M6.72 5.52 l0.52 0.86 l0 2.44 l-0.06 1.24 l-2.68 -0.14 l0 -0.78 l0 -1.06 l-1.32 0.02 l-0.22 0.56 l0.22 2.72 l2.06 0.12 l2 0.24 l0.06 2.54 l0 1.8 l-0.26 3.14 l-1.8 0.88 l-2.64 -0.12 l-1.2 -0.48 l-0.6 -0.46 l-0.28 -1.46 l0.1 -2.48 l0.1 -0.8 l0.68 0.04 l1.56 0.18 l0 0.6 l0 0.66 l0 0.34 l0 0.54 l1.88 0.22 l0.06 -3.6 l-3.98 -0.22 l-0.16 -4.4 l-0.04 -2.88 l0.66 -0.48 c0.46 -0.02 0.86 -0.06 1.24 -0.1 c0.64 -0.06 1.28 -0.1 1.42 -0.1 c0.1 0 0.46 0.02 0.8 0.04 l0.64 0.04 z M8.22 5.359999999999999 l4.06 -0.12 l2.12 0.08 l0.6 0.04 l-0.22 2.9 l-1.6 -0.1 l0.12 11.84 l-3.54 0.04 l0.18 -7.04 l0.08 -4.88 l-1.94 -0.18 z M17.740000000000002 7.699999999999999 l0.06 1.58 l0 2.06 l0.72 0 l0.7 -0.06 l0.46 -0.44 l0 -0.2 l0.08 -1.36 l-0.16 -1.22 l0 -0.04 l-0.22 -0.8 l-0.54 -0.24 l-1.04 0 z M17.62 5.24 l2.62 0.04 l1.24 0.14 l1.02 0.58 l0.8 1.32 l-0.26 3.86 l-0.32 0.6 l-1.18 0.38 l1.34 1 l0.36 0.98 l0 1.6 l-0.18 4.24 l-0.52 0.12 l-2.06 -0.1 l-0.1 -3.9 l-0.14 -2.06 l-0.48 -0.52 l-0.92 -0.3 l0 1.48 l0 3.72 l0.06 1.56 l-1.94 -0.02 l-0.92 0.06 l-0.32 -0.06 l0 -2.88 l0 -2.1 l0.12 -2.72 l-0.08 -4.68 l-0.04 -2.32 z M24.52 19.92 l-0.04 -6.94 l0.08 -0.74 l-0.04 -0.74 l0.1 -4.42 l0.18 -1.72 l6.5 0.12 l0.1 3.9 l-4.26 0 l-0.08 2.5 l3.26 -0.06 l0 0.22 l0.1 1.7 l-3.04 0.06 l0.1 2.96 l4.06 0.2 l0 3.08 z M34.42 13.379999999999999 l2 -0.1 l-0.06 -2.78 l-0.5 -1.94 l-1.24 -0.1 z M34.96 5.199999999999999 l1.28 0 l2.62 0.18 l0.54 7.26 l0.2 7.24 l-0.6 0.04 l-2.26 0.1 l-0.24 0 l-0.18 -4.5 l-1.88 -0.12 l-0.5 4.6 l-1.96 0.06 l0.64 -7.48 l0.58 -4.28 l0.42 -3 z M40.400000000000006 20 l0.24 -14.5 l2.38 -0.18 l1.08 0.12 l1.02 6.94 l0.6 -7.16 l4.1 0.5 c0.02 0.76 0.04 1.54 0.04 2.36 c0.08 1.38 0.18 3.18 0.18 4.84 c0.06 2.68 -0.02 4.6 0.16 7.12 l-1.76 -0.04 l-0.14 -8.98 l-0.38 -0.08 l-1 7.96 l-0.34 0.98 l-2.12 0.12 l-1.02 -8.4 l-0.6 0.14 l0.22 8.38 z M51.46 5.26 l2.56 0.08 l2.16 10.14 l0.18 -1.06 l-0.58 -9.1 l2.22 -0.04 l0.88 0.2 l-0.4 14.4 l-1.78 0.24 l-1.78 -0.1 l-1.18 -8.78 l-0.42 -1.3 l0.06 10.04 l-2.06 0.18 l-0.1 -8.58 z M60.36 19.92 l-0.04 -6.94 l0.08 -0.74 l-0.04 -0.74 l0.1 -4.42 l0.18 -1.72 l6.5 0.12 l0.1 3.9 l-4.26 0 l-0.08 2.5 l3.26 -0.06 l0 0.22 l0.1 1.7 l-3.04 0.06 l0.1 2.96 l4.06 0.2 l0 3.08 z M74.38 5.52 l0.52 0.86 l0 2.44 l-0.06 1.24 l-2.68 -0.14 l0 -0.78 l0 -1.06 l-1.32 0.02 l-0.22 0.56 l0.22 2.72 l2.06 0.12 l2 0.24 l0.06 2.54 l0 1.8 l-0.26 3.14 l-1.8 0.88 l-2.64 -0.12 l-1.2 -0.48 l-0.6 -0.46 l-0.28 -1.46 l0.1 -2.48 l0.1 -0.8 l0.68 0.04 l1.56 0.18 l0 0.6 l0 0.66 l0 0.34 l0 0.54 l1.88 0.22 l0.06 -3.6 l-3.98 -0.22 l-0.16 -4.4 l-0.04 -2.88 l0.66 -0.48 c0.46 -0.02 0.86 -0.06 1.24 -0.1 c0.64 -0.06 1.28 -0.1 1.42 -0.1 c0.1 0 0.46 0.02 0.8 0.04 l0.64 0.04 z M75.88 5.359999999999999 l4.06 -0.12 l2.12 0.08 l0.6 0.04 l-0.22 2.9 l-1.6 -0.1 l0.12 11.84 l-3.54 0.04 l0.18 -7.04 l0.08 -4.88 l-1.94 -0.18 z"></path>
  </g>
</svg>