<?xml version="1.0" standalone="no"?>
<!DOCTYPE svg PUBLIC "-//W3C//DTD SVG 20010904//EN"
 "http://www.w3.org/TR/2001/REC-SVG-20010904/DTD/svg10.dtd">
<svg version="1.0" xmlns="http://www.w3.org/2000/svg"
 width="992.000000pt" height="992.000000pt" viewBox="0 0 992.000000 992.000000"
 preserveAspectRatio="xMidYMid meet">
<metadata>
Created by potrace 1.14, written by Peter Selinger 2001-2017
</metadata>
<g transform="translate(0.000000,992.000000) scale(0.100000,-0.100000)"
fill="#000000" stroke="none">
<path d="M6995 9911 c-16 -4 -45 -15 -62 -25 -18 -9 -33 -14 -33 -12 0 11
-104 -91 -1032 -1017 l-981 -979 -221 219 c-122 120 -220 221 -219 224 1 3 -8
12 -20 19 -12 6 -40 34 -62 60 -22 26 -50 54 -62 60 -12 7 -20 17 -17 22 3 4
1 8 -4 8 -5 0 -24 16 -43 36 -136 143 -354 142 -503 -2 -39 -37 -86 -116 -93
-154 -17 -90 -4 -175 38 -251 13 -23 131 -150 261 -281 l237 -238 -57 0 c-31
-1 -203 0 -382 0 -179 1 -350 0 -380 -1 -30 -1 -86 -1 -125 0 -38 1 -74 2 -80
2 -5 0 -203 0 -440 0 -511 0 -398 0 -770 0 -170 0 -328 0 -350 -1 -22 0 -130
-2 -240 -4 -110 -2 -209 -6 -220 -9 -149 -38 -262 -79 -314 -117 -16 -11 -33
-20 -38 -20 -14 0 -144 -107 -192 -158 -87 -92 -150 -191 -212 -337 -10 -24
-26 -87 -45 -170 -20 -92 -19 -5137 1 -5245 40 -211 123 -372 272 -524 118
-120 324 -237 461 -262 12 -2 34 -7 50 -10 74 -15 131 -18 430 -18 177 0 322
-2 322 -3 0 -1 -40 -43 -88 -92 -83 -84 -129 -154 -137 -204 -11 -64 -12 -77
-6 -77 3 0 5 -15 5 -32 -1 -18 1 -37 4 -43 3 -5 7 -17 7 -26 2 -26 50 -102 94
-147 61 -62 139 -95 231 -96 155 -1 159 1 548 388 l332 331 2112 0 2111 0 316
-315 c174 -174 333 -328 353 -344 71 -54 200 -77 296 -53 72 18 183 111 220
184 19 37 25 60 36 143 5 40 -22 137 -51 182 -14 24 -51 68 -82 100 -31 31
-66 67 -78 80 l-22 23 317 1 c384 1 425 5 562 51 41 14 85 31 98 39 12 8 22
12 22 9 0 -5 126 70 146 88 7 7 28 23 45 37 107 85 203 210 265 345 31 67 76
224 68 237 -3 4 0 8 5 8 13 0 10 5197 -2 5245 -5 17 -13 50 -18 74 -19 84 -71
202 -129 291 -73 111 -239 279 -277 280 -6 0 -13 4 -15 9 -4 11 -138 83 -138
73 0 -4 -4 -2 -8 4 -10 15 -132 53 -221 69 -59 10 -436 18 -771 16 -8 0 -184
0 -390 0 -206 0 -400 -1 -430 -2 -30 -1 -86 -1 -125 0 -90 2 -48 2 -440 2
-187 0 -365 -1 -395 -2 -44 -1 -131 0 -205 2 -5 0 -73 0 -150 -1 -77 -1 -174
-1 -216 -1 l-76 1 264 263 c145 144 268 264 273 265 6 2 10 7 10 11 0 4 65 73
145 152 236 233 350 349 353 359 2 6 7 10 11 10 5 0 211 200 211 205 0 0 113
113 250 250 171 171 258 264 272 295 28 56 28 60 32 140 6 118 -51 232 -156
315 -48 39 -194 64 -263 46z m1753 -3039 c58 -31 108 -84 138 -145 l24 -50 0
-2499 c0 -2488 -1 -2588 -32 -2588 -5 0 -7 -4 -4 -9 10 -16 -76 -102 -128
-129 l-51 -26 -3715 0 c-2043 1 -3727 3 -3741 6 -76 17 -153 79 -190 156 l-24
47 0 2530 0 2530 22 41 c40 74 108 132 183 155 14 4 1701 7 3750 6 l3725 -2
43 -23z"/>
<path d="M3791 2514 c-102 -23 -186 -91 -237 -192 -26 -51 -29 -67 -28 -147 1
-68 6 -101 22 -136 48 -109 145 -186 258 -206 27 -5 560 -8 1184 -8 1072 1
1138 2 1192 19 32 10 63 25 69 32 6 8 16 14 21 14 19 0 87 79 113 131 24 47
49 181 36 194 -2 3 -6 19 -8 35 -5 48 -52 131 -100 178 -45 42 -86 65 -153 84
-51 14 -2306 17 -2369 2z"/>
<path d="M1870 2494 c-61 -21 -84 -35 -124 -76 -73 -76 -101 -144 -100 -246 1
-72 5 -90 33 -147 86 -170 293 -246 454 -167 58 29 126 85 142 119 8 17 19 33
23 35 19 8 40 106 38 178 -4 106 -45 185 -136 262 -41 35 -110 58 -189 63 -52
4 -82 -1 -141 -21z"/>
</g>
</svg>
